<svg width="420" height="257" viewBox="0 0 420 257" fill="none" xmlns="http://www.w3.org/2000/svg">
<path d="M335.066 37.8024H14.604C7.09071 37.8024 1 43.8931 1 51.4064V231.055C1 238.568 7.09071 244.659 14.604 244.659H335.066C342.579 244.659 348.67 238.568 348.67 231.055V51.4064C348.67 43.8931 342.579 37.8024 335.066 37.8024Z" fill="white"/>
<path d="M348.67 51.4064V56.7872H1V51.4064C0.999944 47.7914 2.43079 44.3233 4.97988 41.76C7.52896 39.1967 10.989 37.7465 14.604 37.7264H335.126C336.915 37.7324 338.684 38.0913 340.334 38.7826C341.983 39.4739 343.48 40.4839 344.738 41.7548C345.996 43.0257 346.991 44.5325 347.666 46.1888C348.341 47.845 348.682 49.6181 348.67 51.4064Z" fill="#FBBF24"/>
<path d="M335.066 37.8024H14.604C7.09071 37.8024 1 43.8931 1 51.4064V231.055C1 238.568 7.09071 244.659 14.604 244.659H335.066C342.579 244.659 348.67 238.568 348.67 231.055V51.4064C348.67 43.8931 342.579 37.8024 335.066 37.8024Z" stroke="#263238" stroke-width="1.52" stroke-linecap="round" stroke-linejoin="round"/>
<path d="M348.67 51.4064V56.7872H1V51.4064C0.999944 47.7914 2.43079 44.3233 4.97988 41.76C7.52896 39.1967 10.989 37.7465 14.604 37.7264H335.126C336.915 37.7324 338.684 38.0913 340.334 38.7826C341.983 39.4739 343.48 40.4839 344.738 41.7548C345.996 43.0257 346.991 44.5325 347.666 46.1888C348.341 47.845 348.682 49.6181 348.67 51.4064V51.4064Z" stroke="#263238" stroke-width="1.52" stroke-linecap="round" stroke-linejoin="round"/>
<path d="M40.0483 47.2873C40.0513 47.9763 39.8497 48.6508 39.4691 49.2252C39.0884 49.7996 38.5459 50.2481 37.9101 50.5139C37.2743 50.7797 36.574 50.8508 35.8978 50.7182C35.2216 50.5856 34.5999 50.2553 34.1116 49.7691C33.6233 49.2829 33.2903 48.6628 33.1547 47.9871C33.0192 47.3115 33.0872 46.6109 33.3502 45.9739C33.6132 45.337 34.0594 44.7925 34.6321 44.4093C35.2048 44.0262 35.8784 43.8217 36.5675 43.8217C37.488 43.8216 38.3711 44.1863 39.0234 44.8358C39.6758 45.4853 40.0443 46.3667 40.0483 47.2873Z" fill="#263238"/>
<path d="M58.2129 47.2873C58.2159 47.9763 58.0143 48.6508 57.6337 49.2252C57.2531 49.7996 56.7105 50.2481 56.0747 50.5139C55.439 50.7797 54.7386 50.8508 54.0624 50.7182C53.3862 50.5856 52.7646 50.2553 52.2762 49.7691C51.7879 49.2829 51.4549 48.6628 51.3193 47.9871C51.1838 47.3115 51.2518 46.6109 51.5148 45.9739C51.7778 45.337 52.224 44.7925 52.7967 44.4093C53.3695 44.0262 54.043 43.8217 54.7321 43.8217C55.6526 43.8216 56.5357 44.1863 57.1881 44.8358C57.8404 45.4853 58.2089 46.3667 58.2129 47.2873Z" fill="#263238"/>
<path d="M72.8952 50.768C74.8176 50.768 76.376 49.2096 76.376 47.2872C76.376 45.3648 74.8176 43.8064 72.8952 43.8064C70.9728 43.8064 69.4144 45.3648 69.4144 47.2872C69.4144 49.2096 70.9728 50.768 72.8952 50.768Z" fill="#263238"/>
<path d="M125.518 71.8503H27.2199C24.1222 71.8503 21.6111 74.3615 21.6111 77.4591V124.746C21.6111 127.844 24.1222 130.355 27.2199 130.355H125.518C128.616 130.355 131.127 127.844 131.127 124.746V77.4591C131.127 74.3615 128.616 71.8503 125.518 71.8503Z" stroke="#263238" stroke-width="1.52" stroke-linecap="round" stroke-linejoin="round"/>
<path d="M28.0559 122.998H123.01" stroke="#263238" stroke-width="1.52" stroke-linecap="round" stroke-linejoin="round"/>
<path d="M46.1288 111.826H35.1088V122.846H46.1288V111.826Z" fill="#FBBF24" stroke="#263238" stroke-width="1.52" stroke-miterlimit="10"/>
<path d="M62.2559 97.3408H51.2359V122.998H62.2559V97.3408Z" fill="#FBBF24" stroke="#263238" stroke-width="1.52" stroke-miterlimit="10"/>
<path d="M80.42 101.749H69.4V123.257H80.42V101.749Z" fill="#FBBF24" stroke="#263238" stroke-width="1.52" stroke-miterlimit="10"/>
<path d="M99.5112 80.332H88.4912V122.512H99.5112V80.332Z" fill="#FBBF24" stroke="#263238" stroke-width="1.52" stroke-miterlimit="10"/>
<path d="M118.587 80.6664H107.567V122.846H118.587V80.6664Z" fill="#FBBF24" stroke="#263238" stroke-width="1.52" stroke-miterlimit="10"/>
<path d="M266.909 133.38C283.925 133.38 297.719 119.586 297.719 102.57C297.719 85.5534 283.925 71.7592 266.909 71.7592C249.892 71.7592 236.098 85.5534 236.098 102.57C236.098 119.586 249.892 133.38 266.909 133.38Z" fill="#FBBF24" stroke="#263238" stroke-width="1.52" stroke-miterlimit="10"/>
<path d="M269.432 121.782V124.944H264.264V121.782C262.142 121.269 260.265 120.032 258.955 118.284C257.646 116.537 256.986 114.388 257.09 112.206V110.778L262.942 110.139V111.659C262.942 114.593 264.462 116.371 266.848 116.371C267.366 116.414 267.887 116.345 268.376 116.167C268.864 115.99 269.309 115.709 269.678 115.343C270.048 114.978 270.334 114.537 270.517 114.051C270.701 113.564 270.776 113.044 270.74 112.526C270.74 109.714 268.11 107.297 265.009 104.728C261.331 101.688 257.668 98.0704 257.668 92.9632C257.668 87.856 260.069 84.4056 264.264 83.372V80.1952H269.432V83.3416C273.673 84.3296 276.136 87.9016 276.136 92.9936V94.0272L270.284 94.6504V93.5864C270.284 90.5464 269.083 88.8744 266.955 88.8744C264.827 88.8744 263.626 90.1968 263.626 92.72C263.626 95.532 266.332 97.888 269.372 100.518C272.989 103.558 276.713 107.175 276.713 112.282C276.802 114.467 276.123 116.615 274.792 118.35C273.462 120.086 271.565 121.301 269.432 121.782Z" fill="#263238"/>
<path d="M19.0571 160.238H28.0555" stroke="#263238" stroke-width="1.52" stroke-linecap="round" stroke-linejoin="round"/>
<path d="M19.0571 177.627H28.0555" stroke="#263238" stroke-width="1.52" stroke-linecap="round" stroke-linejoin="round"/>
<path d="M19.0571 195.031H28.0555" stroke="#263238" stroke-width="1.52" stroke-linecap="round" stroke-linejoin="round"/>
<path d="M19.0571 212.42H28.0555" stroke="#263238" stroke-width="1.52" stroke-linecap="round" stroke-linejoin="round"/>
<path d="M47.8925 225.553V218.561" stroke="#263238" stroke-width="1.52" stroke-linecap="round" stroke-linejoin="round"/>
<path d="M62.1498 225.553V218.561" stroke="#263238" stroke-width="1.52" stroke-linecap="round" stroke-linejoin="round"/>
<path d="M76.407 225.553V218.561" stroke="#263238" stroke-width="1.52" stroke-linecap="round" stroke-linejoin="round"/>
<path d="M90.6803 225.553V218.561" stroke="#263238" stroke-width="1.52" stroke-linecap="round" stroke-linejoin="round"/>
<path d="M104.938 225.553V218.561" stroke="#263238" stroke-width="1.52" stroke-linecap="round" stroke-linejoin="round"/>
<path d="M119.195 225.553V218.561" stroke="#263238" stroke-width="1.52" stroke-linecap="round" stroke-linejoin="round"/>
<path d="M133.453 225.553V218.561" stroke="#263238" stroke-width="1.52" stroke-linecap="round" stroke-linejoin="round"/>
<path d="M147.725 225.553V218.561" stroke="#263238" stroke-width="1.52" stroke-linecap="round" stroke-linejoin="round"/>
<path d="M161.984 225.553V218.561" stroke="#263238" stroke-width="1.52" stroke-linecap="round" stroke-linejoin="round"/>
<path d="M176.241 225.553V218.561" stroke="#263238" stroke-width="1.52" stroke-linecap="round" stroke-linejoin="round"/>
<path d="M190.498 225.553V218.561" stroke="#263238" stroke-width="1.52" stroke-linecap="round" stroke-linejoin="round"/>
<path d="M204.772 225.553V218.561" stroke="#263238" stroke-width="1.52" stroke-linecap="round" stroke-linejoin="round"/>
<path d="M219.029 225.553V218.561" stroke="#263238" stroke-width="1.52" stroke-linecap="round" stroke-linejoin="round"/>
<path d="M233.286 225.553V218.561" stroke="#263238" stroke-width="1.52" stroke-linecap="round" stroke-linejoin="round"/>
<path d="M247.544 225.553V218.561" stroke="#263238" stroke-width="1.52" stroke-linecap="round" stroke-linejoin="round"/>
<path d="M261.269 225.553V218.561" stroke="#263238" stroke-width="1.52" stroke-linecap="round" stroke-linejoin="round"/>
<path d="M274.996 225.553V218.561" stroke="#263238" stroke-width="1.52" stroke-linecap="round" stroke-linejoin="round"/>
<path d="M288.706 225.553V218.561" stroke="#263238" stroke-width="1.52" stroke-linecap="round" stroke-linejoin="round"/>
<path d="M325.003 149.598V217.178C325.003 221.814 320.291 225.553 314.485 225.553H29.6061C27.8715 225.614 26.1461 225.274 24.5643 224.56C22.9824 223.846 21.5868 222.776 20.4861 221.434C19.5352 220.215 19.0022 218.723 18.9661 217.178V149.598C18.9661 145.038 23.6781 141.223 29.4845 141.223H314.485C320.291 141.223 325.003 144.962 325.003 149.598Z" stroke="#FBBF24" stroke-width="1.52" stroke-linecap="round" stroke-linejoin="round"/>
<path d="M238.302 18.7111L147.36 141.223L112.583 188.07L74.5827 163.871L28.0859 225.553H27.4171C25.9593 225.554 24.5263 225.175 23.26 224.452C21.9938 223.73 20.938 222.689 20.1971 221.434L72.4395 152.106L110.44 176.259L136.447 141.299L231.28 13.6191L238.302 18.7111Z" fill="#333333"/>
<path d="M215.229 20.2616L248.654 0L239.412 35.0512L233.515 18.8328L215.229 20.2616Z" fill="#333333"/>
<path d="M381.182 200.458C381.18 212.932 376.951 225.038 369.186 234.802C361.422 244.565 350.578 251.41 338.424 254.22H338.257C336.813 254.539 335.369 254.828 333.879 255.041C331.266 255.413 328.63 255.601 325.991 255.603C311.564 255.552 297.731 249.853 287.454 239.728C277.176 229.602 271.273 215.856 271.006 201.431C270.74 187.007 276.133 173.051 286.029 162.553C295.925 152.056 309.539 145.851 323.954 145.266C324.455 145.266 324.987 145.266 325.474 145.266C325.636 145.251 325.798 145.251 325.96 145.266C326.147 145.251 326.335 145.251 326.523 145.266C333.969 145.315 341.326 146.892 348.137 149.902C357.962 154.207 366.32 161.28 372.188 170.259C378.057 179.237 381.182 189.731 381.182 200.458Z" fill="#FBBF24"/>
<path opacity="0.4" d="M348.168 149.918C284.434 146.604 284.13 217.36 284.13 217.36C284.13 217.36 274.402 194.271 290.286 168.72C299.163 154.417 314.606 148.109 326.553 145.312C333.997 145.35 341.354 146.918 348.168 149.918Z" fill="white"/>
<path d="M381.182 200.458C381.181 212.963 376.934 225.097 369.135 234.873C361.337 244.649 350.45 251.486 338.257 254.266C334.234 255.192 330.119 255.656 325.991 255.649C311.353 255.919 297.208 250.363 286.666 240.204C276.125 230.044 270.051 216.114 269.781 201.476C269.511 186.838 275.067 172.693 285.226 162.152C295.386 151.61 309.316 145.536 323.954 145.266C324.623 145.266 325.307 145.266 325.991 145.266C340.627 145.27 354.663 151.086 365.012 161.436C375.362 171.785 381.178 185.821 381.182 200.458V200.458Z" stroke="#263238" stroke-width="1.52" stroke-linecap="round" stroke-linejoin="round"/>
<path d="M381.182 200.458C381.182 212.963 376.934 225.097 369.136 234.873C361.337 244.649 350.45 251.486 338.258 254.266C337.589 254.266 336.905 254.266 336.221 254.266C322.673 254.23 309.612 249.214 299.523 240.172C289.434 231.131 283.021 218.696 281.506 205.233C279.991 191.771 283.479 178.221 291.307 167.163C299.134 156.106 310.754 148.312 323.954 145.266C324.623 145.266 325.307 145.266 325.991 145.266C340.628 145.27 354.663 151.086 365.013 161.436C375.362 171.785 381.178 185.821 381.182 200.458V200.458Z" stroke="#263238" stroke-width="1.52" stroke-linecap="round" stroke-linejoin="round"/>
<path d="M345.006 234.946L346.435 240.783L336.889 243.109L335.46 237.287C326.918 237.287 320.063 231.739 317.874 222.832L317.22 220.187L327.754 216.372L328.423 219.123C329.745 224.534 333.317 227.134 337.771 226.039C338.748 225.887 339.681 225.525 340.505 224.977C341.329 224.429 342.024 223.709 342.543 222.867C343.062 222.025 343.392 221.08 343.51 220.097C343.628 219.115 343.532 218.119 343.227 217.178C341.951 211.979 335.992 208.726 329.091 205.367C320.929 201.415 312.508 196.399 310.198 186.96C307.948 177.749 310.775 170.073 318.056 166.273L316.627 160.436L326.158 158.11L327.587 163.932C335.871 163.81 342.042 169.267 344.307 178.691L344.778 180.606L334.259 184.422L333.727 182.309C332.329 176.578 329.38 174.162 325.459 175.119C321.537 176.077 319.911 179.071 321.051 183.722C322.327 188.921 328.362 192.052 335.187 195.548C343.258 199.637 351.77 204.516 354.08 213.94C356.406 223.014 352.697 231.101 345.006 234.946Z" stroke="#263238" stroke-width="1.52" stroke-miterlimit="10"/>
<path opacity="0.3" d="M345.006 234.946L346.435 240.783L336.889 243.109L335.46 237.287C326.918 237.287 320.063 231.739 317.874 222.832L317.22 220.187L327.754 216.372L328.423 219.123C329.745 224.534 333.317 227.134 337.771 226.039C338.748 225.887 339.681 225.525 340.505 224.977C341.329 224.429 342.024 223.709 342.543 222.867C343.062 222.025 343.392 221.08 343.51 220.097C343.628 219.115 343.532 218.119 343.227 217.178C341.951 211.979 335.992 208.726 329.091 205.367C320.929 201.415 312.508 196.399 310.198 186.96C307.948 177.749 310.775 170.073 318.056 166.273L316.627 160.436L326.158 158.11L327.587 163.932C335.871 163.81 342.042 169.267 344.307 178.691L344.778 180.606L334.259 184.422L333.727 182.309C332.329 176.578 329.38 174.162 325.459 175.119C321.537 176.077 319.911 179.071 321.051 183.722C322.327 188.921 328.362 192.052 335.187 195.548C343.258 199.637 351.77 204.516 354.08 213.94C356.406 223.014 352.697 231.101 345.006 234.946Z" fill="black"/>
<path d="M297.78 247.912L309.438 247.38" stroke="#263238" stroke-width="1.52" stroke-linecap="round" stroke-linejoin="round"/>
<path d="M292.171 244.036L302.34 243.17" stroke="#263238" stroke-width="1.52" stroke-linecap="round" stroke-linejoin="round"/>
<path d="M287.611 239.947L297.78 239.081" stroke="#263238" stroke-width="1.52" stroke-linecap="round" stroke-linejoin="round"/>
<path d="M286.212 162.184H294.922" stroke="#263238" stroke-width="1.52" stroke-linecap="round" stroke-linejoin="round"/>
<path d="M290.514 158.171L299.193 157.776" stroke="#263238" stroke-width="1.52" stroke-linecap="round" stroke-linejoin="round"/>
<path d="M295.955 154.143L305.106 153.277" stroke="#263238" stroke-width="1.52" stroke-linecap="round" stroke-linejoin="round"/>
<path opacity="0.3" d="M338.424 254.22H338.257C334.234 255.146 330.119 255.61 325.991 255.603C311.564 255.552 297.731 249.853 287.454 239.728C277.176 229.602 271.273 215.855 271.006 201.431C270.74 187.006 276.133 173.051 286.029 162.553C295.925 152.056 309.539 145.85 323.954 145.266C324.455 145.266 324.987 145.266 325.474 145.266C312.022 149.507 289.45 160.345 283.415 182.947C274.888 215.065 294.086 251.53 338.424 254.22Z" fill="black"/>
<path opacity="0.1" d="M381.182 200.458C381.18 212.932 376.952 225.038 369.187 234.801C361.422 244.565 350.579 251.41 338.425 254.22H338.258C336.814 254.539 335.37 254.828 333.88 255.041L348.168 149.872C357.992 154.183 366.347 161.263 372.21 170.247C378.073 179.231 381.191 189.729 381.182 200.458Z" fill="black"/>
<path d="M412.494 113.574C408.124 119.747 401.79 124.256 394.527 126.366C387.263 128.475 379.499 128.059 372.503 125.187L372.305 125.096C371.267 124.64 370.253 124.132 369.265 123.576C368.149 122.976 367.073 122.306 366.043 121.57C359.309 116.427 354.779 108.921 353.367 100.567C351.954 92.2137 353.766 83.6354 358.434 76.5656C363.103 69.4958 370.282 64.4618 378.519 62.4805C386.756 60.4993 395.439 61.7185 402.812 65.892L403.556 66.3632C403.906 66.5608 404.24 66.804 404.59 67.0472C404.94 67.2904 405.608 67.792 406.11 68.1872C412.754 73.5166 417.114 81.1805 418.301 89.6151C419.487 98.0496 417.41 106.619 412.494 113.574Z" fill="#FBBF24"/>
<path opacity="0.4" d="M362.121 114.03C362.121 114.03 356.664 97.964 363.915 86.1384C373.035 71.3184 387.003 64.5544 406.019 68.2024C406.019 68.2024 395.713 61.2408 378.461 66.1808C361.209 71.1208 351.952 94.8632 362.121 114.03Z" fill="white"/>
<path d="M412.494 113.59C408.12 119.757 401.784 124.26 394.521 126.364C387.258 128.467 379.496 128.047 372.503 125.172C370.195 124.229 368.002 123.025 365.967 121.585C359.192 116.387 354.661 108.795 353.305 100.364C351.949 91.9329 353.869 83.3026 358.672 76.2423C363.476 69.182 370.798 64.2269 379.138 62.3928C387.478 60.5587 396.204 61.9847 403.526 66.3784C403.861 66.576 404.21 66.804 404.545 67.0472C411.759 72.1739 416.647 79.9515 418.137 88.6757C419.627 97.3999 417.598 106.359 412.494 113.59Z" stroke="#263238" stroke-width="1.52" stroke-linecap="round" stroke-linejoin="round"/>
<path d="M412.493 113.59C408.119 119.757 401.783 124.26 394.52 126.364C387.257 128.467 379.496 128.047 372.502 125.172L371.484 124.503C364.88 119.717 360.254 112.682 358.475 104.722C356.696 96.7624 357.887 88.427 361.824 81.2845C365.762 74.1419 372.174 68.6845 379.854 65.9393C387.534 63.194 395.953 63.3502 403.525 66.3784C403.86 66.576 404.209 66.804 404.544 67.0472C411.758 72.1739 416.646 79.9515 418.136 88.6757C419.626 97.3998 417.597 106.359 412.493 113.59Z" stroke="#263238" stroke-width="1.52" stroke-linecap="round" stroke-linejoin="round"/>
<path d="M382.566 118.028L381.243 121.402L375.71 119.229L377.033 115.839C374.98 114.394 373.493 112.28 372.828 109.859C372.162 107.438 372.359 104.861 373.385 102.57L373.993 101.05L380.529 102.828L379.906 104.439C378.674 107.57 379.51 110.094 382.094 111.112C382.631 111.379 383.219 111.526 383.818 111.543C384.416 111.561 385.012 111.447 385.563 111.212C386.113 110.976 386.606 110.624 387.008 110.179C387.409 109.734 387.708 109.207 387.886 108.634C389.071 105.594 387.262 101.931 385.028 97.8728C382.383 93.0696 379.982 87.6584 382.125 82.1864C384.268 76.7144 388.311 74.0392 393.221 74.708L394.558 71.3336L400.076 73.5072L398.754 76.8664C402.888 79.6936 404.028 84.4664 401.885 90.0144L401.444 91.1088L394.908 89.3304L395.394 88.0992C396.702 84.7856 396.094 82.5512 393.874 81.6544C391.655 80.7576 389.755 81.6544 388.691 84.3752C387.506 87.4152 389.406 91.0328 391.549 95.1368C394.118 99.9856 396.61 105.366 394.467 110.823C393.655 113.237 392.013 115.285 389.835 116.603C387.656 117.922 385.081 118.427 382.566 118.028V118.028Z" stroke="#263238" stroke-width="1.52" stroke-miterlimit="10"/>
<path opacity="0.3" d="M382.566 118.028L381.243 121.402L375.71 119.229L377.033 115.839C374.98 114.394 373.493 112.28 372.828 109.859C372.162 107.438 372.359 104.861 373.385 102.57L373.993 101.05L380.529 102.828L379.906 104.439C378.674 107.57 379.51 110.094 382.094 111.112C382.631 111.379 383.219 111.526 383.818 111.543C384.416 111.561 385.012 111.447 385.563 111.212C386.113 110.976 386.606 110.624 387.008 110.179C387.409 109.734 387.708 109.207 387.886 108.634C389.071 105.594 387.262 101.931 385.028 97.8728C382.383 93.0696 379.982 87.6584 382.125 82.1864C384.268 76.7144 388.311 74.0392 393.221 74.708L394.558 71.3336L400.076 73.5072L398.754 76.8664C402.888 79.6936 404.028 84.4664 401.885 90.0144L401.444 91.1088L394.908 89.3304L395.394 88.0992C396.702 84.7856 396.094 82.5512 393.874 81.6544C391.655 80.7576 389.755 81.6544 388.691 84.3752C387.506 87.4152 389.406 91.0328 391.549 95.1368C394.118 99.9856 396.61 105.366 394.467 110.823C393.655 113.237 392.013 115.285 389.835 116.603C387.656 117.922 385.081 118.427 382.566 118.028Z" fill="black"/>
<path opacity="0.3" d="M402.735 65.9072C393.615 64.2808 382.063 63.384 375.831 67.4272C364.386 74.7688 357.257 84.0256 357.363 99.028C357.47 114.03 371.484 124.549 371.484 124.549L372.305 125.142C370.069 124.208 367.944 123.03 365.967 121.63C359.233 116.488 354.703 108.982 353.291 100.628C351.878 92.2745 353.69 83.6962 358.358 76.6264C363.027 69.5566 370.205 64.5226 378.443 62.5413C386.68 60.5601 395.362 61.7793 402.735 65.9528V65.9072Z" fill="black"/>
<path opacity="0.1" d="M412.494 113.574C408.123 119.747 401.79 124.256 394.526 126.366C387.263 128.475 379.499 128.059 372.503 125.187L372.305 125.096C371.267 124.64 370.253 124.132 369.265 123.576L406.019 68.2024C412.673 73.5183 417.048 81.173 418.251 89.6046C419.455 98.0362 417.395 106.609 412.494 113.574Z" fill="black"/>
</svg>
